<?xml version="1.0" encoding="UTF-8"?>
<svg xmlns="http://www.w3.org/2000/svg" version="1.1" viewBox="0 0 1417.32 1417.32">
  <!-- Generator: Adobe Illustrator 29.5.1, SVG Export Plug-In . SVG Version: 2.1.0 Build 141)  -->
  <defs>
    <style>
      .st0 {
        fill: #269e6b;
      }

      .st0, .st1, .st2, .st3, .st4, .st5, .st6, .st7, .st8, .st9, .st10, .st11, .st12, .st13, .st14, .st15, .st16, .st17, .st18, .st19, .st20, .st21, .st22, .st23, .st24, .st25, .st26, .st27 {
        stroke: #1d1d1b;
        stroke-miterlimit: 10;
      }

      .st28 {
        opacity: .25;
      }

      .st28, .st29 {
        display: none;
      }

      .st1 {
        fill: #8349a3;
      }

      .st2 {
        fill: #00b49c;
      }

      .st3 {
        fill: #fc8899;
      }

      .st4 {
        fill: #f9d565;
      }

      .st5 {
        fill: #f6f6f6;
      }

      .st6 {
        fill: #d47247;
      }

      .st7 {
        fill: none;
        stroke-width: 5px;
      }

      .st8 {
        fill: #e6332a;
      }

      .st9 {
        fill: #e24859;
      }

      .st10 {
        fill: #da3f80;
      }

      .st11 {
        fill: #9f6358;
      }

      .st12 {
        fill: #ffed00;
      }

      .st13 {
        fill: #9d9d9c;
      }

      .st14 {
        fill: #237dca;
      }

      .st15 {
        fill: #ca9e67;
      }

      .st16 {
        fill: #ff883d;
      }

      .st17 {
        fill: #009640;
      }

      .st18 {
        fill: #e45049;
      }

      .st19 {
        fill: #008db4;
      }

      .st20 {
        fill: #009fe3;
      }

      .st21 {
        fill: #ce438d;
      }

      .st22 {
        fill: #e30613;
      }

      .st23 {
        fill: #e6007e;
      }

      .st24 {
        fill: #ac41a8;
      }

      .st25 {
        fill: #5761a2;
      }

      .st26 {
        fill: #9e7749;
      }

      .st27 {
        fill: #00b3d6;
      }
    </style>
  </defs>
  <g id="Tablero" class="st29">
    <g>
      <polygon class="st19" points="316.23 279.06 245.36 279.06 209.93 340.43 245.36 401.8 316.23 401.8 351.66 340.43 316.23 279.06"/>
      <polygon class="st19" points="423.19 217.69 352.33 217.69 316.9 279.06 352.33 340.43 423.19 340.43 458.63 279.06 423.19 217.69"/>
      <polygon class="st19" points="423.19 340.43 352.33 340.43 316.9 401.8 352.33 463.17 423.19 463.17 458.63 401.8 423.19 340.43"/>
      <polygon class="st15" points="530.16 279.06 459.3 279.06 423.86 340.43 459.3 401.8 530.16 401.8 565.59 340.43 530.16 279.06"/>
      <polygon class="st17" points="423.19 463.17 352.33 463.17 316.9 524.55 352.33 585.92 423.19 585.92 458.63 524.55 423.19 463.17"/>
      <polygon class="st25" points="530.16 401.8 459.3 401.8 423.86 463.17 459.3 524.55 530.16 524.55 565.59 463.17 530.16 401.8"/>
      <polygon class="st17" points="530.16 524.55 459.3 524.55 423.86 585.92 459.3 647.29 530.16 647.29 565.59 585.92 530.16 524.55"/>
      <polygon class="st25" points="637.13 463.17 566.26 463.17 530.83 524.55 566.26 585.92 637.13 585.92 672.56 524.55 637.13 463.17"/>
      <polygon class="st13" points="209.26 340.43 138.4 340.43 102.96 401.8 138.4 463.17 209.26 463.17 244.69 401.8 209.26 340.43"/>
      <polygon class="st27" points="209.26 463.17 138.4 463.17 102.96 524.55 138.4 585.92 209.26 585.92 244.69 524.55 209.26 463.17"/>
      <polygon class="st17" points="316.23 401.8 245.36 401.8 209.93 463.17 245.36 524.55 316.23 524.55 351.66 463.17 316.23 401.8"/>
      <polygon class="st27" points="209.26 585.92 138.4 585.92 102.96 647.29 138.4 708.66 209.26 708.66 244.69 647.29 209.26 585.92"/>
      <polygon class="st27" points="316.23 524.55 245.36 524.55 209.93 585.92 245.36 647.29 316.23 647.29 351.66 585.92 316.23 524.55"/>
      <polygon class="st15" points="316.23 647.29 245.36 647.29 209.93 708.66 245.36 770.03 316.23 770.03 351.66 708.66 316.23 647.29"/>
      <polygon class="st0" points="423.19 585.92 352.33 585.92 316.9 647.29 352.33 708.66 423.19 708.66 458.63 647.29 423.19 585.92"/>
      <polygon class="st0" points="530.16 647.29 459.3 647.29 423.86 708.66 459.3 770.03 530.16 770.03 565.59 708.66 530.16 647.29"/>
      <polygon class="st13" points="637.13 585.92 566.26 585.92 530.83 647.29 566.26 708.66 637.13 708.66 672.56 647.29 637.13 585.92"/>
      <polygon class="st13" points="637.13 708.66 566.26 708.66 530.83 770.03 566.26 831.41 637.13 831.41 672.56 770.03 637.13 708.66"/>
      <polygon class="st5" points="744.09 647.29 673.23 647.29 637.8 708.66 673.23 770.03 744.09 770.03 779.53 708.66 744.09 647.29"/>
      <polygon class="st11" points="637.13 831.41 566.26 831.41 530.83 892.78 566.26 954.15 637.13 954.15 672.56 892.78 637.13 831.41"/>
      <polygon class="st13" points="744.09 770.03 673.23 770.03 637.8 831.41 673.23 892.78 744.09 892.78 779.53 831.41 744.09 770.03"/>
      <polygon class="st22" points="744.09 892.78 673.23 892.78 637.8 954.15 673.23 1015.52 744.09 1015.52 779.53 954.15 744.09 892.78"/>
      <polygon class="st18" points="851.06 831.41 780.2 831.41 744.76 892.78 780.2 954.15 851.06 954.15 886.49 892.78 851.06 831.41"/>
      <polygon class="st2" points="316.23 770.03 245.36 770.03 209.93 831.41 245.36 892.78 316.23 892.78 351.66 831.41 316.23 770.03"/>
      <polygon class="st0" points="423.19 708.66 352.33 708.66 316.9 770.03 352.33 831.41 423.19 831.41 458.63 770.03 423.19 708.66"/>
      <polygon class="st8" points="423.19 831.41 352.33 831.41 316.9 892.78 352.33 954.15 423.19 954.15 458.63 892.78 423.19 831.41"/>
      <polygon class="st8" points="530.16 770.03 459.3 770.03 423.86 831.41 459.3 892.78 530.16 892.78 565.59 831.41 530.16 770.03"/>
      <polygon class="st6" points="423.19 954.15 352.33 954.15 316.9 1015.52 352.33 1076.89 423.19 1076.89 458.63 1015.52 423.19 954.15"/>
      <polygon class="st11" points="530.16 892.78 459.3 892.78 423.86 954.15 459.3 1015.52 530.16 1015.52 565.59 954.15 530.16 892.78"/>
      <polygon class="st15" points="530.16 1015.52 459.3 1015.52 423.86 1076.89 459.3 1138.26 530.16 1138.26 565.59 1076.89 530.16 1015.52"/>
      <polygon class="st11" points="637.13 954.15 566.26 954.15 530.83 1015.52 566.26 1076.89 637.13 1076.89 672.56 1015.52 637.13 954.15"/>
      <polygon class="st13" points="744.09 33.57 673.23 33.57 637.8 94.94 673.23 156.31 744.09 156.31 779.53 94.94 744.09 33.57"/>
      <polygon class="st24" points="851.06 94.94 780.2 94.94 744.76 156.31 780.2 217.69 851.06 217.69 886.49 156.31 851.06 94.94"/>
      <polygon class="st24" points="851.06 217.69 780.2 217.69 744.76 279.06 780.2 340.43 851.06 340.43 886.49 279.06 851.06 217.69"/>
      <polygon class="st24" points="958.03 156.31 887.16 156.31 851.73 217.69 887.16 279.06 958.03 279.06 993.46 217.69 958.03 156.31"/>
      <polygon class="st15" points="958.03 279.06 887.16 279.06 851.73 340.43 887.16 401.8 958.03 401.8 993.46 340.43 958.03 279.06"/>
      <polygon class="st10" points="1064.99 217.69 994.13 217.69 958.7 279.06 994.13 340.43 1064.99 340.43 1100.43 279.06 1064.99 217.69"/>
      <polygon class="st14" points="530.16 156.31 459.3 156.31 423.86 217.69 459.3 279.06 530.16 279.06 565.59 217.69 530.16 156.31"/>
      <polygon class="st14" points="637.13 94.94 566.26 94.94 530.83 156.31 566.26 217.69 637.13 217.69 672.56 156.31 637.13 94.94"/>
      <polygon class="st14" points="637.13 217.69 566.26 217.69 530.83 279.06 566.26 340.43 637.13 340.43 672.56 279.06 637.13 217.69"/>
      <polygon class="st23" points="744.09 156.31 673.23 156.31 637.8 217.69 673.23 279.06 744.09 279.06 779.53 217.69 744.09 156.31"/>
      <polygon class="st25" points="637.13 340.43 566.26 340.43 530.83 401.8 566.26 463.17 637.13 463.17 672.56 401.8 637.13 340.43"/>
      <polygon class="st23" points="744.09 279.06 673.23 279.06 637.8 340.43 673.23 401.8 744.09 401.8 779.53 340.43 744.09 279.06"/>
      <polygon class="st23" points="744.09 401.8 673.23 401.8 637.8 463.17 673.23 524.55 744.09 524.55 779.53 463.17 744.09 401.8"/>
      <polygon class="st1" points="851.06 340.43 780.2 340.43 744.76 401.8 780.2 463.17 851.06 463.17 886.49 401.8 851.06 340.43"/>
      <polygon class="st1" points="958.03 401.8 887.16 401.8 851.73 463.17 887.16 524.55 958.03 524.55 993.46 463.17 958.03 401.8"/>
      <polygon class="st10" points="1064.99 340.43 994.13 340.43 958.7 401.8 994.13 463.17 1064.99 463.17 1100.43 401.8 1064.99 340.43"/>
      <polygon class="st20" points="1064.99 463.17 994.13 463.17 958.7 524.55 994.13 585.92 1064.99 585.92 1100.43 524.55 1064.99 463.17"/>
      <polygon class="st20" points="1171.96 401.8 1101.1 401.8 1065.66 463.17 1101.1 524.55 1171.96 524.55 1207.39 463.17 1171.96 401.8"/>
      <polygon class="st21" points="1064.99 585.92 994.13 585.92 958.7 647.29 994.13 708.66 1064.99 708.66 1100.43 647.29 1064.99 585.92"/>
      <polygon class="st3" points="1171.96 524.55 1101.1 524.55 1065.66 585.92 1101.1 647.29 1171.96 647.29 1207.39 585.92 1171.96 524.55"/>
      <polygon class="st15" points="1171.96 647.29 1101.1 647.29 1065.66 708.66 1101.1 770.03 1171.96 770.03 1207.39 708.66 1171.96 647.29"/>
      <polygon class="st3" points="1278.93 585.92 1208.06 585.92 1172.63 647.29 1208.06 708.66 1278.93 708.66 1314.36 647.29 1278.93 585.92"/>
      <polygon class="st13" points="744.09 524.55 673.23 524.55 637.8 585.92 673.23 647.29 744.09 647.29 779.53 585.92 744.09 524.55"/>
      <polygon class="st1" points="851.06 463.17 780.2 463.17 744.76 524.55 780.2 585.92 851.06 585.92 886.49 524.55 851.06 463.17"/>
      <polygon class="st13" points="851.06 585.92 780.2 585.92 744.76 647.29 780.2 708.66 851.06 708.66 886.49 647.29 851.06 585.92"/>
      <polygon class="st20" points="958.03 524.55 887.16 524.55 851.73 585.92 887.16 647.29 958.03 647.29 993.46 585.92 958.03 524.55"/>
      <polygon class="st13" points="851.06 708.66 780.2 708.66 744.76 770.03 780.2 831.41 851.06 831.41 886.49 770.03 851.06 708.66"/>
      <polygon class="st21" points="958.03 647.29 887.16 647.29 851.73 708.66 887.16 770.03 958.03 770.03 993.46 708.66 958.03 647.29"/>
      <polygon class="st12" points="958.03 770.03 887.16 770.03 851.73 831.41 887.16 892.78 958.03 892.78 993.46 831.41 958.03 770.03"/>
      <polygon class="st21" points="1064.99 708.66 994.13 708.66 958.7 770.03 994.13 831.41 1064.99 831.41 1100.43 770.03 1064.99 708.66"/>
      <polygon class="st18" points="851.06 954.15 780.2 954.15 744.76 1015.52 780.2 1076.89 851.06 1076.89 886.49 1015.52 851.06 954.15"/>
      <polygon class="st18" points="958.03 892.78 887.16 892.78 851.73 954.15 887.16 1015.52 958.03 1015.52 993.46 954.15 958.03 892.78"/>
      <polygon class="st15" points="958.03 1015.52 887.16 1015.52 851.73 1076.89 887.16 1138.26 958.03 1138.26 993.46 1076.89 958.03 1015.52"/>
      <polygon class="st16" points="1064.99 954.15 994.13 954.15 958.7 1015.52 994.13 1076.89 1064.99 1076.89 1100.43 1015.52 1064.99 954.15"/>
      <polygon class="st4" points="958.03 1138.26 887.16 1138.26 851.73 1199.64 887.16 1261.01 958.03 1261.01 993.46 1199.64 958.03 1138.26"/>
      <polygon class="st16" points="1064.99 1076.89 994.13 1076.89 958.7 1138.26 994.13 1199.64 1064.99 1199.64 1100.43 1138.26 1064.99 1076.89"/>
      <polygon class="st26" points="637.13 1076.89 566.26 1076.89 530.83 1138.26 566.26 1199.64 637.13 1199.64 672.56 1138.26 637.13 1076.89"/>
      <polygon class="st22" points="744.09 1015.52 673.23 1015.52 637.8 1076.89 673.23 1138.26 744.09 1138.26 779.53 1076.89 744.09 1015.52"/>
      <polygon class="st22" points="744.09 1138.26 673.23 1138.26 637.8 1199.64 673.23 1261.01 744.09 1261.01 779.53 1199.64 744.09 1138.26"/>
      <polygon class="st4" points="851.06 1076.89 780.2 1076.89 744.76 1138.26 780.2 1199.64 851.06 1199.64 886.49 1138.26 851.06 1076.89"/>
      <polygon class="st4" points="851.06 1199.64 780.2 1199.64 744.76 1261.01 780.2 1322.38 851.06 1322.38 886.49 1261.01 851.06 1199.64"/>
      <polygon class="st10" points="1171.96 279.06 1101.1 279.06 1065.66 340.43 1101.1 401.8 1171.96 401.8 1207.39 340.43 1171.96 279.06"/>
      <polygon class="st13" points="1278.93 340.43 1208.06 340.43 1172.63 401.8 1208.06 463.17 1278.93 463.17 1314.36 401.8 1278.93 340.43"/>
      <polygon class="st9" points="1278.93 708.66 1208.06 708.66 1172.63 770.03 1208.06 831.41 1278.93 831.41 1314.36 770.03 1278.93 708.66"/>
      <polygon class="st2" points="209.26 708.66 138.4 708.66 102.96 770.03 138.4 831.41 209.26 831.41 244.69 770.03 209.26 708.66"/>
      <polygon class="st2" points="209.26 831.41 138.4 831.41 102.96 892.78 138.4 954.15 209.26 954.15 244.69 892.78 209.26 831.41"/>
      <polygon class="st13" points="209.26 954.15 138.4 954.15 102.96 1015.52 138.4 1076.89 209.26 1076.89 244.69 1015.52 209.26 954.15"/>
      <polygon class="st8" points="316.23 892.78 245.36 892.78 209.93 954.15 245.36 1015.52 316.23 1015.52 351.66 954.15 316.23 892.78"/>
      <polygon class="st12" points="1064.99 831.41 994.13 831.41 958.7 892.78 994.13 954.15 1064.99 954.15 1100.43 892.78 1064.99 831.41"/>
      <polygon class="st9" points="1171.96 770.03 1101.1 770.03 1065.66 831.41 1101.1 892.78 1171.96 892.78 1207.39 831.41 1171.96 770.03"/>
      <polygon class="st12" points="1171.96 892.78 1101.1 892.78 1065.66 954.15 1101.1 1015.52 1171.96 1015.52 1207.39 954.15 1171.96 892.78"/>
      <polygon class="st9" points="1278.93 831.41 1208.06 831.41 1172.63 892.78 1208.06 954.15 1278.93 954.15 1314.36 892.78 1278.93 831.41"/>
      <polygon class="st16" points="1171.96 1015.52 1101.1 1015.52 1065.66 1076.89 1101.1 1138.26 1171.96 1138.26 1207.39 1076.89 1171.96 1015.52"/>
      <polygon class="st13" points="1278.93 954.15 1208.06 954.15 1172.63 1015.52 1208.06 1076.89 1278.93 1076.89 1314.36 1015.52 1278.93 954.15"/>
      <polygon class="st6" points="316.23 1015.52 245.36 1015.52 209.93 1076.89 245.36 1138.26 316.23 1138.26 351.66 1076.89 316.23 1015.52"/>
      <polygon class="st3" points="1278.93 463.17 1208.06 463.17 1172.63 524.55 1208.06 585.92 1278.93 585.92 1314.36 524.55 1278.93 463.17"/>
      <polygon class="st6" points="423.19 1076.89 352.33 1076.89 316.9 1138.26 352.33 1199.64 423.19 1199.64 458.63 1138.26 423.19 1076.89"/>
      <polygon class="st26" points="530.16 1138.26 459.3 1138.26 423.86 1199.64 459.3 1261.01 530.16 1261.01 565.59 1199.64 530.16 1138.26"/>
      <polygon class="st26" points="637.13 1199.64 566.26 1199.64 530.83 1261.01 566.26 1322.38 637.13 1322.38 672.56 1261.01 637.13 1199.64"/>
      <polygon class="st13" points="744.09 1261.01 673.23 1261.01 637.8 1322.38 673.23 1383.75 744.09 1383.75 779.53 1322.38 744.09 1261.01"/>
    </g>
  </g>
  <g id="Casillas" class="st29">
    <g id="Tableros">
      <polygon class="st19" points="316.23 279.06 245.36 279.06 209.93 340.43 245.36 401.8 316.23 401.8 351.66 340.43 316.23 279.06"/>
      <polygon class="st19" points="423.19 217.69 352.33 217.69 316.9 279.06 352.33 340.43 423.19 340.43 458.63 279.06 423.19 217.69"/>
      <polygon class="st19" points="423.19 340.43 352.33 340.43 316.9 401.8 352.33 463.17 423.19 463.17 458.63 401.8 423.19 340.43"/>
      <polygon class="st15" points="530.16 279.06 459.3 279.06 423.86 340.43 459.3 401.8 530.16 401.8 565.59 340.43 530.16 279.06"/>
      <polygon class="st17" points="423.19 463.17 352.33 463.17 316.9 524.55 352.33 585.92 423.19 585.92 458.63 524.55 423.19 463.17"/>
      <polygon class="st25" points="530.16 401.8 459.3 401.8 423.86 463.17 459.3 524.55 530.16 524.55 565.59 463.17 530.16 401.8"/>
      <polygon class="st17" points="530.16 524.55 459.3 524.55 423.86 585.92 459.3 647.29 530.16 647.29 565.59 585.92 530.16 524.55"/>
      <polygon class="st25" points="637.13 463.17 566.26 463.17 530.83 524.55 566.26 585.92 637.13 585.92 672.56 524.55 637.13 463.17"/>
      <polygon class="st13" points="209.26 340.43 138.4 340.43 102.96 401.8 138.4 463.17 209.26 463.17 244.69 401.8 209.26 340.43"/>
      <polygon class="st27" points="209.26 463.17 138.4 463.17 102.96 524.55 138.4 585.92 209.26 585.92 244.69 524.55 209.26 463.17"/>
      <polygon class="st17" points="316.23 401.8 245.36 401.8 209.93 463.17 245.36 524.55 316.23 524.55 351.66 463.17 316.23 401.8"/>
      <polygon class="st27" points="209.26 585.92 138.4 585.92 102.96 647.29 138.4 708.66 209.26 708.66 244.69 647.29 209.26 585.92"/>
      <polygon class="st27" points="316.23 524.55 245.36 524.55 209.93 585.92 245.36 647.29 316.23 647.29 351.66 585.92 316.23 524.55"/>
      <polygon class="st15" points="316.23 647.29 245.36 647.29 209.93 708.66 245.36 770.03 316.23 770.03 351.66 708.66 316.23 647.29"/>
      <polygon class="st0" points="423.19 585.92 352.33 585.92 316.9 647.29 352.33 708.66 423.19 708.66 458.63 647.29 423.19 585.92"/>
      <polygon class="st0" points="530.16 647.29 459.3 647.29 423.86 708.66 459.3 770.03 530.16 770.03 565.59 708.66 530.16 647.29"/>
      <polygon class="st13" points="637.13 585.92 566.26 585.92 530.83 647.29 566.26 708.66 637.13 708.66 672.56 647.29 637.13 585.92"/>
      <polygon class="st13" points="637.13 708.66 566.26 708.66 530.83 770.03 566.26 831.41 637.13 831.41 672.56 770.03 637.13 708.66"/>
      <polygon class="st5" points="744.09 647.29 673.23 647.29 637.8 708.66 673.23 770.03 744.09 770.03 779.53 708.66 744.09 647.29"/>
      <polygon class="st11" points="637.13 831.41 566.26 831.41 530.83 892.78 566.26 954.15 637.13 954.15 672.56 892.78 637.13 831.41"/>
      <polygon class="st13" points="744.09 770.03 673.23 770.03 637.8 831.41 673.23 892.78 744.09 892.78 779.53 831.41 744.09 770.03"/>
      <polygon class="st22" points="744.09 892.78 673.23 892.78 637.8 954.15 673.23 1015.52 744.09 1015.52 779.53 954.15 744.09 892.78"/>
      <polygon class="st18" points="851.06 831.41 780.2 831.41 744.76 892.78 780.2 954.15 851.06 954.15 886.49 892.78 851.06 831.41"/>
      <polygon class="st2" points="316.23 770.03 245.36 770.03 209.93 831.41 245.36 892.78 316.23 892.78 351.66 831.41 316.23 770.03"/>
      <polygon class="st0" points="423.19 708.66 352.33 708.66 316.9 770.03 352.33 831.41 423.19 831.41 458.63 770.03 423.19 708.66"/>
      <polygon class="st8" points="423.19 831.41 352.33 831.41 316.9 892.78 352.33 954.15 423.19 954.15 458.63 892.78 423.19 831.41"/>
      <polygon class="st8" points="530.16 770.03 459.3 770.03 423.86 831.41 459.3 892.78 530.16 892.78 565.59 831.41 530.16 770.03"/>
      <polygon class="st6" points="423.19 954.15 352.33 954.15 316.9 1015.52 352.33 1076.89 423.19 1076.89 458.63 1015.52 423.19 954.15"/>
      <polygon class="st11" points="530.16 892.78 459.3 892.78 423.86 954.15 459.3 1015.52 530.16 1015.52 565.59 954.15 530.16 892.78"/>
      <polygon class="st15" points="530.16 1015.52 459.3 1015.52 423.86 1076.89 459.3 1138.26 530.16 1138.26 565.59 1076.89 530.16 1015.52"/>
      <polygon class="st11" points="637.13 954.15 566.26 954.15 530.83 1015.52 566.26 1076.89 637.13 1076.89 672.56 1015.52 637.13 954.15"/>
      <polygon class="st13" points="744.09 33.57 673.23 33.57 637.8 94.94 673.23 156.31 744.09 156.31 779.53 94.94 744.09 33.57"/>
      <polygon class="st24" points="851.06 94.94 780.2 94.94 744.76 156.31 780.2 217.69 851.06 217.69 886.49 156.31 851.06 94.94"/>
      <polygon class="st24" points="851.06 217.69 780.2 217.69 744.76 279.06 780.2 340.43 851.06 340.43 886.49 279.06 851.06 217.69"/>
      <polygon class="st24" points="958.03 156.31 887.16 156.31 851.73 217.69 887.16 279.06 958.03 279.06 993.46 217.69 958.03 156.31"/>
      <polygon class="st15" points="958.03 279.06 887.16 279.06 851.73 340.43 887.16 401.8 958.03 401.8 993.46 340.43 958.03 279.06"/>
      <polygon class="st10" points="1064.99 217.69 994.13 217.69 958.7 279.06 994.13 340.43 1064.99 340.43 1100.43 279.06 1064.99 217.69"/>
      <polygon class="st14" points="530.16 156.31 459.3 156.31 423.86 217.69 459.3 279.06 530.16 279.06 565.59 217.69 530.16 156.31"/>
      <polygon class="st14" points="637.13 94.94 566.26 94.94 530.83 156.31 566.26 217.69 637.13 217.69 672.56 156.31 637.13 94.94"/>
      <polygon class="st14" points="637.13 217.69 566.26 217.69 530.83 279.06 566.26 340.43 637.13 340.43 672.56 279.06 637.13 217.69"/>
      <polygon class="st23" points="744.09 156.31 673.23 156.31 637.8 217.69 673.23 279.06 744.09 279.06 779.53 217.69 744.09 156.31"/>
      <polygon class="st25" points="637.13 340.43 566.26 340.43 530.83 401.8 566.26 463.17 637.13 463.17 672.56 401.8 637.13 340.43"/>
      <polygon class="st23" points="744.09 279.06 673.23 279.06 637.8 340.43 673.23 401.8 744.09 401.8 779.53 340.43 744.09 279.06"/>
      <polygon class="st23" points="744.09 401.8 673.23 401.8 637.8 463.17 673.23 524.55 744.09 524.55 779.53 463.17 744.09 401.8"/>
      <polygon class="st1" points="851.06 340.43 780.2 340.43 744.76 401.8 780.2 463.17 851.06 463.17 886.49 401.8 851.06 340.43"/>
      <polygon class="st1" points="958.03 401.8 887.16 401.8 851.73 463.17 887.16 524.55 958.03 524.55 993.46 463.17 958.03 401.8"/>
      <polygon class="st10" points="1064.99 340.43 994.13 340.43 958.7 401.8 994.13 463.17 1064.99 463.17 1100.43 401.8 1064.99 340.43"/>
      <polygon class="st20" points="1064.99 463.17 994.13 463.17 958.7 524.55 994.13 585.92 1064.99 585.92 1100.43 524.55 1064.99 463.17"/>
      <polygon class="st20" points="1171.96 401.8 1101.1 401.8 1065.66 463.17 1101.1 524.55 1171.96 524.55 1207.39 463.17 1171.96 401.8"/>
      <polygon class="st21" points="1064.99 585.92 994.13 585.92 958.7 647.29 994.13 708.66 1064.99 708.66 1100.43 647.29 1064.99 585.92"/>
      <polygon class="st3" points="1171.96 524.55 1101.1 524.55 1065.66 585.92 1101.1 647.29 1171.96 647.29 1207.39 585.92 1171.96 524.55"/>
      <polygon class="st15" points="1171.96 647.29 1101.1 647.29 1065.66 708.66 1101.1 770.03 1171.96 770.03 1207.39 708.66 1171.96 647.29"/>
      <polygon class="st3" points="1278.93 585.92 1208.06 585.92 1172.63 647.29 1208.06 708.66 1278.93 708.66 1314.36 647.29 1278.93 585.92"/>
      <polygon class="st13" points="744.09 524.55 673.23 524.55 637.8 585.92 673.23 647.29 744.09 647.29 779.53 585.92 744.09 524.55"/>
      <polygon class="st1" points="851.06 463.17 780.2 463.17 744.76 524.55 780.2 585.92 851.06 585.92 886.49 524.55 851.06 463.17"/>
      <polygon class="st13" points="851.06 585.92 780.2 585.92 744.76 647.29 780.2 708.66 851.06 708.66 886.49 647.29 851.06 585.92"/>
      <polygon class="st20" points="958.03 524.55 887.16 524.55 851.73 585.92 887.16 647.29 958.03 647.29 993.46 585.92 958.03 524.55"/>
      <polygon class="st13" points="851.06 708.66 780.2 708.66 744.76 770.03 780.2 831.41 851.06 831.41 886.49 770.03 851.06 708.66"/>
      <polygon class="st21" points="958.03 647.29 887.16 647.29 851.73 708.66 887.16 770.03 958.03 770.03 993.46 708.66 958.03 647.29"/>
      <polygon class="st12" points="958.03 770.03 887.16 770.03 851.73 831.41 887.16 892.78 958.03 892.78 993.46 831.41 958.03 770.03"/>
      <polygon class="st21" points="1064.99 708.66 994.13 708.66 958.7 770.03 994.13 831.41 1064.99 831.41 1100.43 770.03 1064.99 708.66"/>
      <polygon class="st18" points="851.06 954.15 780.2 954.15 744.76 1015.52 780.2 1076.89 851.06 1076.89 886.49 1015.52 851.06 954.15"/>
      <polygon class="st18" points="958.03 892.78 887.16 892.78 851.73 954.15 887.16 1015.52 958.03 1015.52 993.46 954.15 958.03 892.78"/>
      <polygon class="st15" points="958.03 1015.52 887.16 1015.52 851.73 1076.89 887.16 1138.26 958.03 1138.26 993.46 1076.89 958.03 1015.52"/>
      <polygon class="st16" points="1064.99 954.15 994.13 954.15 958.7 1015.52 994.13 1076.89 1064.99 1076.89 1100.43 1015.52 1064.99 954.15"/>
      <polygon class="st4" points="958.03 1138.26 887.16 1138.26 851.73 1199.64 887.16 1261.01 958.03 1261.01 993.46 1199.64 958.03 1138.26"/>
      <polygon class="st16" points="1064.99 1076.89 994.13 1076.89 958.7 1138.26 994.13 1199.64 1064.99 1199.64 1100.43 1138.26 1064.99 1076.89"/>
      <polygon class="st26" points="637.13 1076.89 566.26 1076.89 530.83 1138.26 566.26 1199.64 637.13 1199.64 672.56 1138.26 637.13 1076.89"/>
      <polygon class="st22" points="744.09 1015.52 673.23 1015.52 637.8 1076.89 673.23 1138.26 744.09 1138.26 779.53 1076.89 744.09 1015.52"/>
      <polygon class="st22" points="744.09 1138.26 673.23 1138.26 637.8 1199.64 673.23 1261.01 744.09 1261.01 779.53 1199.64 744.09 1138.26"/>
      <polygon class="st4" points="851.06 1076.89 780.2 1076.89 744.76 1138.26 780.2 1199.64 851.06 1199.64 886.49 1138.26 851.06 1076.89"/>
      <polygon class="st4" points="851.06 1199.64 780.2 1199.64 744.76 1261.01 780.2 1322.38 851.06 1322.38 886.49 1261.01 851.06 1199.64"/>
      <polygon class="st10" points="1171.96 279.06 1101.1 279.06 1065.66 340.43 1101.1 401.8 1171.96 401.8 1207.39 340.43 1171.96 279.06"/>
      <polygon class="st13" points="1278.93 340.43 1208.06 340.43 1172.63 401.8 1208.06 463.17 1278.93 463.17 1314.36 401.8 1278.93 340.43"/>
      <polygon class="st9" points="1278.93 708.66 1208.06 708.66 1172.63 770.03 1208.06 831.41 1278.93 831.41 1314.36 770.03 1278.93 708.66"/>
      <polygon class="st2" points="209.26 708.66 138.4 708.66 102.96 770.03 138.4 831.41 209.26 831.41 244.69 770.03 209.26 708.66"/>
      <polygon class="st2" points="209.26 831.41 138.4 831.41 102.96 892.78 138.4 954.15 209.26 954.15 244.69 892.78 209.26 831.41"/>
      <polygon class="st13" points="209.26 954.15 138.4 954.15 102.96 1015.52 138.4 1076.89 209.26 1076.89 244.69 1015.52 209.26 954.15"/>
      <polygon class="st8" points="316.23 892.78 245.36 892.78 209.93 954.15 245.36 1015.52 316.23 1015.52 351.66 954.15 316.23 892.78"/>
      <polygon class="st12" points="1064.99 831.41 994.13 831.41 958.7 892.78 994.13 954.15 1064.99 954.15 1100.43 892.78 1064.99 831.41"/>
      <polygon class="st9" points="1171.96 770.03 1101.1 770.03 1065.66 831.41 1101.1 892.78 1171.96 892.78 1207.39 831.41 1171.96 770.03"/>
      <polygon class="st12" points="1171.96 892.78 1101.1 892.78 1065.66 954.15 1101.1 1015.52 1171.96 1015.52 1207.39 954.15 1171.96 892.78"/>
      <polygon class="st9" points="1278.93 831.41 1208.06 831.41 1172.63 892.78 1208.06 954.15 1278.93 954.15 1314.36 892.78 1278.93 831.41"/>
      <polygon class="st16" points="1171.96 1015.52 1101.1 1015.52 1065.66 1076.89 1101.1 1138.26 1171.96 1138.26 1207.39 1076.89 1171.96 1015.52"/>
      <polygon class="st13" points="1278.93 954.15 1208.06 954.15 1172.63 1015.52 1208.06 1076.89 1278.93 1076.89 1314.36 1015.52 1278.93 954.15"/>
      <polygon class="st6" points="316.23 1015.52 245.36 1015.52 209.93 1076.89 245.36 1138.26 316.23 1138.26 351.66 1076.89 316.23 1015.52"/>
      <polygon class="st3" points="1278.93 463.17 1208.06 463.17 1172.63 524.55 1208.06 585.92 1278.93 585.92 1314.36 524.55 1278.93 463.17"/>
      <polygon class="st6" points="423.19 1076.89 352.33 1076.89 316.9 1138.26 352.33 1199.64 423.19 1199.64 458.63 1138.26 423.19 1076.89"/>
      <polygon class="st26" points="530.16 1138.26 459.3 1138.26 423.86 1199.64 459.3 1261.01 530.16 1261.01 565.59 1199.64 530.16 1138.26"/>
      <polygon class="st26" points="637.13 1199.64 566.26 1199.64 530.83 1261.01 566.26 1322.38 637.13 1322.38 672.56 1261.01 637.13 1199.64"/>
      <polygon class="st13" points="744.09 1261.01 673.23 1261.01 637.8 1322.38 673.23 1383.75 744.09 1383.75 779.53 1322.38 744.09 1261.01"/>
    </g>
    <g id="Caminos" class="st28">
      <path class="st7" d="M1243.49,1015.52c22.58-34.21,24.2-88.18,0-122.74-33.84-48.32-106.44-41.99-106.97-61.37-.63-23.14,102.98-28.41,106.97-61.37,3.12-25.79-54.79-68.43-106.97-61.37-50.27,6.8-56.64,54.56-106.97,61.37-51.4,6.95-109.17-34.2-106.97-61.37,1.64-20.2,35.42-19.9,106.97-61.37,69.12-40.06,75.07-62.06,106.97-61.37,56.58,1.23,86.61,71.52,106.97,61.37,15.19-7.57,4.51-49.71,0-122.74-4.76-77.03,15.48-91.9,0-122.74-18.45-36.77-64.69-65.08-106.97-61.37-58.92,5.16-89.81,70.72-106.97,61.37-20.46-11.15,26.58-102.68,0-122.74-20.9-15.78-87.06,12.83-106.97,61.37-19.13,46.65,19.15,76.04,0,122.74-19.61,47.82-84.41,77.04-106.97,61.37-16.7-11.6.35-40.44,0-122.74-.33-79.53-16.43-95.65,0-122.74,29.25-48.24,105.52-38.83,106.97-61.37,1.05-16.45-39.49-22.26-106.97-61.37-67.01-38.84-72.25-59.31-106.97-61.37-41.11-2.44-89.02,22.98-106.97,61.37-24.86,53.2,16.62,112.51,0,122.74-19.89,12.25-76.29-74.52-106.97-61.37-23.97,10.27-32,81.46,0,122.74,31.04,40.05,75.96,21.36,106.97,61.37,31.51,40.66,24.71,110.98,0,122.74-18.43,8.78-35.16-20.6-106.97-61.37-69.38-39.39-91.63-33.46-106.97-61.37-27.06-49.24,18.9-110.12,0-122.74-13.83-9.24-39.17,22.88-106.97,61.37-67.31,38.22-87.85,32.41-106.97,61.37-22.58,34.21-24.2,88.18,0,122.74,33.84,48.32,106.44,41.99,106.97,61.37.63,23.14-102.98,28.41-106.97,61.37-3.12,25.79,54.79,68.43,106.97,61.37,50.27-6.8,56.64-54.56,106.97-61.37,51.4-6.95,109.17,34.2,106.97,61.37-1.64,20.2-35.42,19.9-106.97,61.37-69.12,40.06-75.07,62.06-106.97,61.37-56.58-1.23-86.61-71.52-106.97-61.37-15.19,7.57-4.51,49.71,0,122.74,4.76,77.03-15.48,91.9,0,122.74,18.45,36.77,64.69,65.08,106.97,61.37,58.92-5.16,89.81-70.72,106.97-61.37,20.46,11.15-26.58,102.68,0,122.74,20.9,15.78,87.06-12.83,106.97-61.37,19.13-46.65-19.15-76.04,0-122.74,19.61-47.82,84.41-77.04,106.97-61.37,16.7,11.6-.35,40.44,0,122.74.33,79.53,16.43,95.65,0,122.74-29.25,48.24-105.52,38.83-106.97,61.37-1.05,16.45,39.49,22.26,106.97,61.37,67.01,38.84,72.25,59.31,106.97,61.37,41.11,2.44,89.02-22.98,106.97-61.37,24.86-53.2-16.62-112.51,0-122.74,19.89-12.25,76.29,74.52,106.97,61.37,23.97-10.27,32-81.46,0-122.74-31.01-40.01-75.93-21.32-106.97-61.37-31.51-40.66-24.71-110.98,0-122.74,18.43-8.78,35.16,20.6,106.97,61.37,69.38,39.39,91.63,33.46,106.97,61.37,27.06,49.24-18.9,110.12,0,122.74,13.83,9.24,39.17-22.88,106.97-61.37,67.31-38.22,87.85-32.41,106.97-61.37Z"/>
      <path class="st7" d="M815.63,770.03c35.66,20.46,71.31,40.91,106.97,61.37,35.66,20.46,71.31,40.91,106.97,61.37,35.66,20.46,71.31,40.91,106.97,61.37,35.66,20.46,71.31,40.91,106.97,61.37"/>
      <path class="st7" d="M815.63,647.29c35.66-20.46,71.31-40.91,106.97-61.37,35.66-20.46,71.31-40.91,106.97-61.37,35.66-20.46,71.31-40.91,106.97-61.37,35.66-20.46,71.31-40.91,106.97-61.37"/>
      <path class="st7" d="M708.66,1322.38V94.94"/>
      <polyline class="st7" points="601.69 647.29 494.73 585.92 387.76 524.55 280.79 463.17 173.83 401.8"/>
      <polyline class="st7" points="601.69 770.03 494.73 831.41 387.76 892.78 280.79 954.15 173.83 1015.52"/>
      <path class="st7" d="M601.69,892.78c16.89,9.8,52.16-61.37,106.97-61.37s90.08,71.17,106.97,61.37c16.87-9.78-27.21-75.6,0-122.74,27.32-47.32,106.97-42.05,106.97-61.37s-79.65-14.05-106.97-61.37c-27.21-47.14,16.87-112.96,0-122.74-16.89-9.8-52.16,61.37-106.97,61.37s-90.08-71.17-106.97-61.37c-16.87,9.78,27.21,75.6,0,122.74-27.32,47.32-106.97,42.05-106.97,61.37s79.65,14.05,106.97,61.37c27.21,47.14-16.87,112.96,0,122.74Z"/>
    </g>
    <g id="Nomenclatura" class="st29">
      <g>
        <path d="M691.51,708.3v.36h-5.67v-.36h.47c.55,0,.94-.16,1.19-.48.16-.21.23-.71.23-1.5v-8.55c0-.67-.04-1.11-.13-1.33-.06-.16-.2-.3-.4-.42-.29-.16-.59-.23-.9-.23h-.47v-.36h5.67v.36h-.48c-.54,0-.93.16-1.18.48-.16.21-.24.71-.24,1.5v8.55c0,.67.04,1.11.13,1.33.06.16.2.3.41.42.28.16.58.23.89.23h.48Z"/>
        <path d="M695.23,701.35c1.05-1.26,2.05-1.89,3-1.89.49,0,.91.12,1.26.37s.63.65.84,1.21c.14.39.21.99.21,1.8v3.82c0,.57.05.95.14,1.15.07.16.19.29.35.38s.45.14.88.14v.35h-4.42v-.35h.19c.42,0,.71-.06.87-.19s.28-.31.35-.56c.03-.1.04-.4.04-.92v-3.66c0-.81-.11-1.4-.32-1.77s-.57-.55-1.07-.55c-.77,0-1.55.42-2.31,1.27v4.72c0,.61.04.98.11,1.12.09.19.22.33.38.42s.48.13.97.13v.35h-4.42v-.35h.2c.46,0,.76-.12.92-.35s.24-.67.24-1.32v-3.32c0-1.07-.02-1.73-.07-1.96s-.12-.39-.22-.48-.24-.13-.41-.13c-.18,0-.4.05-.65.15l-.15-.35,2.7-1.09h.42v1.89Z"/>
        <path d="M705.71,699.45v7.19c0,.56.04.93.12,1.12s.2.32.36.42.45.14.87.14v.35h-4.35v-.35c.44,0,.73-.04.88-.13s.27-.22.36-.42.13-.57.13-1.12v-3.45c0-.97-.03-1.6-.09-1.88-.05-.21-.12-.35-.21-.43s-.23-.12-.4-.12c-.18,0-.4.05-.66.15l-.14-.35,2.7-1.09h.43ZM704.9,694.77c.27,0,.51.1.7.29s.29.42.29.7-.1.51-.29.7-.42.29-.7.29-.51-.1-.7-.29-.29-.43-.29-.7.1-.51.29-.7.43-.29.71-.29Z"/>
        <path d="M715.78,705.26c-.24,1.18-.71,2.08-1.42,2.72s-1.48.95-2.33.95c-1.02,0-1.9-.43-2.66-1.28s-1.13-2.01-1.13-3.46.42-2.55,1.25-3.43,1.84-1.32,3.01-1.32c.88,0,1.6.23,2.17.7s.85.95.85,1.45c0,.25-.08.45-.24.6-.16.15-.38.23-.67.23-.38,0-.67-.12-.87-.37-.11-.14-.18-.4-.22-.78-.04-.38-.17-.68-.4-.88-.23-.2-.54-.29-.95-.29-.65,0-1.17.24-1.57.72-.53.64-.79,1.48-.79,2.53s.26,2.01.79,2.83c.52.82,1.23,1.23,2.12,1.23.64,0,1.21-.22,1.72-.65.36-.3.71-.84,1.04-1.63l.28.14Z"/>
        <path d="M720.14,699.45v7.19c0,.56.04.93.12,1.12.08.19.2.32.36.42.16.09.45.14.87.14v.35h-4.35v-.35c.44,0,.73-.04.88-.13.15-.08.27-.22.36-.42s.13-.57.13-1.12v-3.45c0-.97-.03-1.6-.09-1.88-.04-.21-.12-.35-.21-.43s-.23-.12-.4-.12c-.18,0-.4.05-.66.15l-.14-.35,2.7-1.09h.43ZM719.33,694.77c.27,0,.51.1.7.29.19.19.29.42.29.7s-.1.51-.29.7c-.19.2-.42.29-.7.29s-.51-.1-.7-.29-.29-.43-.29-.7.1-.51.29-.7c.19-.19.43-.29.71-.29Z"/>
        <path d="M726.99,699.45c1.35,0,2.44.51,3.26,1.54.7.88,1.04,1.89,1.04,3.03,0,.8-.19,1.61-.58,2.43s-.91,1.44-1.59,1.86-1.42.62-2.25.62c-1.35,0-2.42-.54-3.21-1.61-.67-.9-1.01-1.92-1.01-3.05,0-.82.2-1.64.61-2.45.41-.81.94-1.41,1.61-1.8s1.37-.58,2.11-.58ZM726.68,700.09c-.34,0-.69.1-1.04.31-.35.21-.63.56-.84,1.08s-.32,1.18-.32,1.98c0,1.3.26,2.43.78,3.37s1.2,1.42,2.05,1.42c.63,0,1.15-.26,1.56-.78s.62-1.42.62-2.69c0-1.59-.34-2.84-1.03-3.75-.46-.62-1.05-.94-1.77-.94Z"/>
        <path d="M689.72,729.4h.43c.07.89.35,1.58.84,2.05s1.22.76,2.19.85v-5.7c-1.46-.91-2.44-1.71-2.93-2.4-.35-.5-.52-1.1-.52-1.81,0-.8.3-1.5.89-2.1s1.45-.96,2.55-1.08v-.9h.62v.9c.53.03.98.09,1.35.19.19.04.81.27,1.88.67v2.92h-.38c-.08-1.04-.35-1.79-.81-2.27s-1.13-.76-2.04-.85v4.96c1.64,1.15,2.69,1.99,3.16,2.53s.7,1.22.7,2.03c0,.9-.34,1.69-1.02,2.37s-1.63,1.08-2.84,1.18v1.25h-.62v-1.25c-.61-.03-1.18-.1-1.71-.21s-1.11-.3-1.75-.56v-2.76ZM693.17,724.41v-4.54c-.65.08-1.13.29-1.45.62s-.47.76-.47,1.26c0,.48.14.92.43,1.33s.78.85,1.49,1.32ZM693.8,732.3c.49-.08.86-.21,1.12-.36.36-.23.65-.53.86-.89s.32-.76.32-1.18-.13-.84-.39-1.22-.9-.93-1.92-1.63v5.28Z"/>
        <path d="M707.83,730.11l-.93,2.55h-7.81v-.36c2.3-2.1,3.92-3.81,4.85-5.14s1.41-2.54,1.41-3.64c0-.84-.26-1.53-.77-2.07s-1.13-.81-1.85-.81c-.65,0-1.24.19-1.75.57s-.9.94-1.15,1.67h-.36c.16-1.2.58-2.13,1.25-2.77s1.52-.97,2.52-.97c1.07,0,1.97.35,2.69,1.04.72.69,1.08,1.5,1.08,2.44,0,.67-.16,1.34-.47,2.01-.48,1.05-1.26,2.17-2.34,3.35-1.62,1.77-2.63,2.84-3.04,3.2h3.46c.7,0,1.2-.03,1.48-.08s.54-.16.77-.32.43-.39.6-.68h.36Z"/>
        <path d="M709.38,726.12c0-1.51.23-2.81.68-3.9.46-1.09,1.06-1.9,1.82-2.44.59-.42,1.19-.63,1.82-.63,1.02,0,1.93.52,2.73,1.55,1.01,1.28,1.51,3.02,1.51,5.21,0,1.54-.22,2.84-.66,3.92-.44,1.07-1.01,1.85-1.69,2.34-.69.49-1.35.73-1.99.73-1.26,0-2.31-.75-3.15-2.24-.71-1.26-1.06-2.77-1.06-4.54ZM711.3,726.36c0,1.82.22,3.31.67,4.46.37.97.92,1.46,1.66,1.46.35,0,.72-.16,1.09-.47.38-.32.66-.84.86-1.59.3-1.12.45-2.7.45-4.74,0-1.51-.16-2.77-.47-3.78-.23-.75-.54-1.28-.91-1.59-.27-.21-.59-.32-.97-.32-.44,0-.84.2-1.18.6-.47.54-.79,1.39-.96,2.55-.17,1.16-.25,2.3-.25,3.43Z"/>
        <path d="M719.38,726.12c0-1.51.23-2.81.68-3.9.46-1.09,1.06-1.9,1.82-2.44.59-.42,1.19-.63,1.82-.63,1.02,0,1.93.52,2.73,1.55,1.01,1.28,1.51,3.02,1.51,5.21,0,1.54-.22,2.84-.66,3.92-.44,1.07-1.01,1.85-1.69,2.34-.69.49-1.35.73-1.99.73-1.26,0-2.31-.75-3.15-2.24-.71-1.26-1.06-2.77-1.06-4.54ZM721.3,726.36c0,1.82.22,3.31.67,4.46.37.97.92,1.46,1.66,1.46.35,0,.72-.16,1.09-.47.38-.32.66-.84.86-1.59.3-1.12.45-2.7.45-4.74,0-1.51-.16-2.77-.47-3.78-.23-.75-.54-1.28-.91-1.59-.27-.21-.59-.32-.97-.32-.44,0-.84.2-1.18.6-.47.54-.79,1.39-.96,2.55-.17,1.16-.25,2.3-.25,3.43Z"/>
      </g>
      <g>
        <path d="M1088.47,703.62h-5.13l-.9,2.09c-.22.51-.33.9-.33,1.15,0,.2.1.38.29.53s.61.25,1.25.3v.36h-4.17v-.36c.55-.1.91-.22,1.07-.38.33-.31.7-.95,1.1-1.9l4.66-10.9h.34l4.61,11.02c.37.89.71,1.46,1.01,1.72s.72.41,1.26.44v.36h-5.22v-.36c.53-.03.88-.11,1.07-.26s.28-.33.28-.55c0-.29-.13-.74-.39-1.36l-.8-1.9ZM1088.2,702.89l-2.25-5.35-2.3,5.35h4.55Z"/>
        <path d="M1095.89,702.47c0,1.33.32,2.37.97,3.12s1.42,1.13,2.29,1.13c.59,0,1.1-.16,1.53-.48s.8-.87,1.09-1.66l.3.2c-.14.89-.53,1.7-1.19,2.44s-1.48,1.1-2.47,1.1c-1.07,0-1.99-.42-2.76-1.25s-1.15-1.96-1.15-3.37c0-1.53.39-2.72,1.18-3.58s1.77-1.28,2.95-1.28c1,0,1.83.33,2.47.99s.97,1.54.97,2.65h-6.18ZM1095.89,701.91h4.14c-.03-.57-.1-.98-.21-1.21-.16-.36-.41-.65-.73-.86s-.66-.31-1.01-.31c-.54,0-1.02.21-1.45.63s-.68,1-.75,1.75Z"/>
        <path d="M1105.88,698.84v2.01c.75-1.34,1.52-2.01,2.3-2.01.36,0,.65.11.89.33s.35.47.35.76c0,.25-.08.47-.25.64s-.37.26-.61.26-.48-.11-.77-.34-.49-.34-.63-.34c-.12,0-.24.06-.38.2-.29.27-.6.71-.91,1.32v4.29c0,.49.06.87.19,1.12.08.18.23.32.45.44s.52.18.93.18v.35h-4.58v-.35c.46,0,.79-.07,1.02-.21.16-.1.28-.27.34-.5.03-.11.05-.43.05-.95v-3.47c0-1.04-.02-1.66-.06-1.86s-.12-.34-.23-.43-.26-.14-.42-.14c-.2,0-.43.05-.68.15l-.1-.35,2.71-1.09h.41Z"/>
        <path d="M1114.3,698.84c1.35,0,2.44.51,3.26,1.54.7.88,1.04,1.89,1.04,3.03,0,.8-.19,1.61-.58,2.43s-.91,1.44-1.59,1.86-1.42.62-2.25.62c-1.35,0-2.42-.54-3.21-1.61-.67-.9-1.01-1.92-1.01-3.05,0-.82.2-1.64.61-2.45s.94-1.41,1.61-1.8,1.37-.58,2.11-.58ZM1114,699.47c-.34,0-.69.1-1.04.31s-.63.56-.84,1.08-.32,1.18-.32,1.98c0,1.3.26,2.43.78,3.37s1.2,1.42,2.05,1.42c.63,0,1.15-.26,1.56-.78s.62-1.42.62-2.69c0-1.59-.34-2.84-1.03-3.75-.46-.62-1.05-.94-1.77-.94Z"/>
        <path d="M1119.28,699.99l2.75-1.11h.37v2.09c.46-.79.93-1.34,1.39-1.66s.96-.47,1.47-.47c.9,0,1.65.35,2.25,1.05.74.86,1.1,1.98,1.1,3.36,0,1.54-.44,2.82-1.33,3.83-.73.83-1.65,1.24-2.75,1.24-.48,0-.9-.07-1.25-.21-.26-.1-.55-.29-.88-.59v2.72c0,.61.04,1,.11,1.17s.21.3.39.4.52.15,1.01.15v.36h-4.69v-.36h.24c.36,0,.66-.06.92-.21.12-.07.22-.19.29-.35s.1-.56.1-1.22v-8.46c0-.58-.03-.95-.08-1.1s-.13-.27-.25-.35-.27-.12-.46-.12c-.16,0-.35.05-.6.14l-.12-.31ZM1122.41,701.54v3.34c0,.72.03,1.2.09,1.43.09.38.31.71.67,1s.8.43,1.34.43c.65,0,1.18-.25,1.58-.76.53-.66.79-1.6.79-2.8,0-1.37-.3-2.42-.9-3.15-.42-.51-.91-.76-1.48-.76-.31,0-.62.08-.93.23-.23.12-.62.47-1.16,1.05Z"/>
        <path d="M1137.77,699.1v5.42c0,1.04.02,1.67.07,1.9s.13.39.23.48.23.14.38.14c.2,0,.43-.06.68-.17l.14.34-2.68,1.1h-.44v-1.89c-.77.83-1.35,1.36-1.76,1.57s-.83.32-1.28.32c-.5,0-.94-.15-1.3-.43s-.62-.66-.77-1.12-.21-1.1-.21-1.93v-3.99c0-.42-.05-.72-.14-.88s-.23-.29-.41-.38-.5-.13-.97-.12v-.36h3.13v5.99c0,.83.14,1.38.43,1.64s.64.39,1.05.39c.28,0,.6-.09.95-.26s.78-.51,1.26-1.01v-5.07c0-.51-.09-.85-.28-1.03s-.57-.27-1.16-.29v-.36h3.05Z"/>
        <path d="M1141.43,702.47c0,1.33.32,2.37.97,3.12s1.42,1.13,2.29,1.13c.59,0,1.1-.16,1.53-.48s.8-.87,1.09-1.66l.3.2c-.14.89-.53,1.7-1.19,2.44s-1.48,1.1-2.47,1.1c-1.07,0-1.99-.42-2.76-1.25s-1.15-1.96-1.15-3.37c0-1.53.39-2.72,1.18-3.58s1.77-1.28,2.95-1.28c1,0,1.83.33,2.47.99s.97,1.54.97,2.65h-6.18ZM1141.43,701.91h4.14c-.03-.57-.1-.98-.21-1.21-.16-.36-.41-.65-.73-.86s-.66-.31-1.01-.31c-.54,0-1.02.21-1.45.63s-.68,1-.75,1.75Z"/>
        <path d="M1151.42,698.84v2.01c.75-1.34,1.52-2.01,2.3-2.01.36,0,.65.11.89.33s.35.47.35.76c0,.25-.08.47-.25.64s-.37.26-.61.26-.48-.11-.77-.34-.49-.34-.63-.34c-.12,0-.24.06-.38.2-.29.27-.6.71-.91,1.32v4.29c0,.49.06.87.19,1.12.08.18.23.32.45.44s.52.18.93.18v.35h-4.58v-.35c.46,0,.79-.07,1.02-.21.16-.1.28-.27.34-.5.03-.11.05-.43.05-.95v-3.47c0-1.04-.02-1.66-.06-1.86s-.12-.34-.23-.43-.26-.14-.42-.14c-.2,0-.43.05-.68.15l-.1-.35,2.71-1.09h.41Z"/>
        <path d="M1158.06,696.16v2.94h2.09v.68h-2.09v5.8c0,.58.08.97.25,1.17s.38.3.64.3c.21,0,.42-.07.62-.2s.36-.33.47-.59h.38c-.23.64-.55,1.12-.97,1.44s-.85.48-1.29.48c-.3,0-.59-.08-.88-.25s-.5-.4-.63-.71-.21-.79-.21-1.43v-6.02h-1.42v-.32c.36-.14.72-.39,1.1-.73s.71-.75,1-1.22c.15-.25.36-.7.62-1.36h.3Z"/>
        <path d="M1165.4,698.84c1.35,0,2.44.51,3.26,1.54.7.88,1.04,1.89,1.04,3.03,0,.8-.19,1.61-.58,2.43s-.91,1.44-1.59,1.86-1.42.62-2.25.62c-1.35,0-2.42-.54-3.21-1.61-.67-.9-1.01-1.92-1.01-3.05,0-.82.2-1.64.61-2.45s.94-1.41,1.61-1.8,1.37-.58,2.11-.58ZM1165.09,699.47c-.34,0-.69.1-1.04.31s-.63.56-.84,1.08-.32,1.18-.32,1.98c0,1.3.26,2.43.78,3.37s1.2,1.42,2.05,1.42c.63,0,1.15-.26,1.56-.78s.62-1.42.62-2.69c0-1.59-.34-2.84-1.03-3.75-.46-.62-1.05-.94-1.77-.94Z"/>
        <path d="M1184.63,701.29c.92.2,1.6.51,2.06.94.63.6.95,1.33.95,2.2,0,.66-.21,1.29-.62,1.89s-.99,1.04-1.71,1.32-1.83.42-3.33.42h-6.25v-.36h.5c.55,0,.95-.18,1.19-.53.15-.23.22-.71.22-1.46v-8.55c0-.82-.09-1.34-.28-1.55-.25-.29-.63-.43-1.13-.43h-.5v-.36h5.72c1.07,0,1.92.08,2.57.23.98.23,1.72.65,2.24,1.25s.77,1.28.77,2.06c0,.66-.2,1.26-.61,1.78s-1,.91-1.79,1.17ZM1179.52,700.76c.24.05.52.08.83.1s.65.03,1.02.03c.95,0,1.67-.1,2.14-.31s.84-.52,1.1-.94.38-.89.38-1.39c0-.77-.32-1.44-.95-1.98s-1.55-.82-2.76-.82c-.65,0-1.24.07-1.76.21v5.09ZM1179.52,707.09c.75.18,1.5.26,2.24.26,1.18,0,2.08-.27,2.7-.8s.93-1.19.93-1.97c0-.51-.14-1.01-.42-1.48s-.74-.85-1.37-1.12-1.41-.41-2.34-.41c-.4,0-.75,0-1.04.02s-.52.04-.69.07v5.43Z"/>
        <path d="M1191.24,706.15c.31,0,.56.11.77.32s.31.47.31.77-.11.56-.32.77-.47.32-.77.32-.55-.11-.77-.32-.32-.47-.32-.77.11-.56.32-.77.47-.31.77-.31Z"/>
        <path d="M1132.58,728.79h.43c.07.89.35,1.58.84,2.05s1.22.76,2.19.85v-5.7c-1.46-.91-2.44-1.71-2.93-2.4-.34-.5-.52-1.1-.52-1.81,0-.8.3-1.5.89-2.1s1.45-.96,2.55-1.08v-.9h.62v.9c.53.03.98.09,1.35.19.19.05.81.27,1.88.67v2.92h-.38c-.08-1.04-.35-1.79-.81-2.27s-1.13-.76-2.04-.85v4.96c1.64,1.15,2.69,1.99,3.16,2.53s.7,1.22.7,2.03c0,.9-.34,1.69-1.02,2.37s-1.63,1.08-2.84,1.18v1.25h-.62v-1.25c-.61-.03-1.18-.1-1.71-.21s-1.11-.3-1.75-.56v-2.76ZM1136.04,723.8v-4.54c-.65.08-1.13.29-1.45.62s-.47.76-.47,1.26c0,.48.14.92.43,1.33s.78.85,1.49,1.32ZM1136.67,731.69c.49-.08.86-.21,1.12-.36.36-.23.65-.53.86-.89s.32-.76.32-1.18-.13-.84-.39-1.22-.9-.93-1.92-1.63v5.28Z"/>
      </g>
      <g>
        <path d="M232.74,704.23h-5.13l-.9,2.09c-.22.51-.33.9-.33,1.15,0,.2.1.38.29.53s.61.25,1.25.3v.36h-4.17v-.36c.55-.1.91-.22,1.07-.38.33-.31.7-.95,1.1-1.9l4.66-10.9h.34l4.61,11.02c.37.89.71,1.46,1.01,1.72s.72.41,1.26.44v.36h-5.22v-.36c.53-.03.88-.11,1.07-.26s.28-.33.28-.55c0-.29-.13-.74-.39-1.36l-.8-1.9ZM232.46,703.5l-2.25-5.35-2.3,5.35h4.55Z"/>
        <path d="M240.16,703.08c0,1.33.32,2.37.97,3.12s1.42,1.13,2.29,1.13c.59,0,1.1-.16,1.53-.48s.8-.87,1.09-1.66l.3.2c-.14.89-.53,1.7-1.19,2.44s-1.48,1.1-2.47,1.1c-1.07,0-1.99-.42-2.76-1.25s-1.15-1.96-1.15-3.37c0-1.53.39-2.72,1.18-3.58s1.77-1.28,2.95-1.28c1,0,1.83.33,2.47.99s.97,1.54.97,2.65h-6.18ZM240.16,702.52h4.14c-.03-.57-.1-.98-.21-1.21-.16-.36-.41-.65-.73-.86s-.66-.31-1.01-.31c-.54,0-1.02.21-1.45.63s-.68,1-.75,1.75Z"/>
        <path d="M250.15,699.45v2.01c.75-1.34,1.52-2.01,2.3-2.01.36,0,.65.11.89.33s.35.47.35.76c0,.25-.08.47-.25.64s-.37.26-.61.26-.48-.11-.77-.34-.49-.34-.63-.34c-.12,0-.24.06-.38.2-.29.27-.6.71-.91,1.32v4.29c0,.49.06.87.19,1.12.08.18.23.32.45.44s.52.18.93.18v.35h-4.58v-.35c.46,0,.79-.07,1.02-.21.16-.1.28-.27.34-.5.03-.11.05-.43.05-.95v-3.47c0-1.04-.02-1.66-.06-1.86s-.12-.34-.23-.43-.26-.14-.42-.14c-.2,0-.43.05-.68.15l-.1-.35,2.71-1.09h.41Z"/>
        <path d="M258.57,699.45c1.35,0,2.44.51,3.26,1.54.7.88,1.04,1.89,1.04,3.03,0,.8-.19,1.61-.58,2.43s-.91,1.44-1.59,1.86-1.42.62-2.25.62c-1.35,0-2.42-.54-3.21-1.61-.67-.9-1.01-1.92-1.01-3.05,0-.82.2-1.64.61-2.45s.94-1.41,1.61-1.8,1.37-.58,2.11-.58ZM258.27,700.09c-.34,0-.69.1-1.04.31s-.63.56-.84,1.08-.32,1.18-.32,1.98c0,1.3.26,2.43.78,3.37s1.2,1.42,2.05,1.42c.63,0,1.15-.26,1.56-.78s.62-1.42.62-2.69c0-1.59-.34-2.84-1.03-3.75-.46-.62-1.05-.94-1.77-.94Z"/>
        <path d="M263.55,700.6l2.75-1.11h.37v2.09c.46-.79.93-1.34,1.39-1.66s.96-.47,1.47-.47c.9,0,1.65.35,2.25,1.05.74.86,1.1,1.98,1.1,3.36,0,1.54-.44,2.82-1.33,3.83-.73.83-1.65,1.24-2.75,1.24-.48,0-.9-.07-1.25-.21-.26-.1-.55-.29-.88-.59v2.72c0,.61.04,1,.11,1.17s.21.3.39.4.52.15,1.01.15v.36h-4.69v-.36h.24c.36,0,.66-.06.92-.21.12-.07.22-.19.29-.35s.1-.56.1-1.22v-8.46c0-.58-.03-.95-.08-1.1s-.13-.27-.25-.35-.27-.12-.46-.12c-.16,0-.35.05-.6.14l-.12-.31ZM266.67,702.16v3.34c0,.72.03,1.2.09,1.43.09.38.31.71.67,1s.8.43,1.34.43c.65,0,1.18-.25,1.58-.76.53-.66.79-1.6.79-2.8,0-1.37-.3-2.42-.9-3.15-.42-.51-.91-.76-1.48-.76-.31,0-.62.08-.93.23-.23.12-.62.47-1.16,1.05Z"/>
        <path d="M282.03,699.72v5.42c0,1.04.02,1.67.07,1.9s.13.39.23.48.23.14.38.14c.2,0,.43-.06.68-.17l.14.34-2.68,1.1h-.44v-1.89c-.77.83-1.35,1.36-1.76,1.57s-.83.32-1.28.32c-.5,0-.94-.15-1.3-.43s-.62-.66-.77-1.12-.21-1.1-.21-1.93v-3.99c0-.42-.05-.72-.14-.88s-.23-.29-.41-.38-.5-.13-.97-.12v-.36h3.13v5.99c0,.83.14,1.38.43,1.64s.64.39,1.05.39c.28,0,.6-.09.95-.26s.78-.51,1.26-1.01v-5.07c0-.51-.09-.85-.28-1.03s-.57-.27-1.16-.29v-.36h3.05Z"/>
        <path d="M285.7,703.08c0,1.33.32,2.37.97,3.12s1.42,1.13,2.29,1.13c.59,0,1.1-.16,1.53-.48s.8-.87,1.09-1.66l.3.2c-.14.89-.53,1.7-1.19,2.44s-1.48,1.1-2.47,1.1c-1.07,0-1.99-.42-2.76-1.25s-1.15-1.96-1.15-3.37c0-1.53.39-2.72,1.18-3.58s1.77-1.28,2.95-1.28c1,0,1.83.33,2.47.99s.97,1.54.97,2.65h-6.18ZM285.7,702.52h4.14c-.03-.57-.1-.98-.21-1.21-.16-.36-.41-.65-.73-.86s-.66-.31-1.01-.31c-.54,0-1.02.21-1.45.63s-.68,1-.75,1.75Z"/>
        <path d="M295.69,699.45v2.01c.75-1.34,1.52-2.01,2.3-2.01.36,0,.65.11.89.33s.35.47.35.76c0,.25-.08.47-.25.64s-.37.26-.61.26-.48-.11-.77-.34-.49-.34-.63-.34c-.12,0-.24.06-.38.2-.29.27-.6.71-.91,1.32v4.29c0,.49.06.87.19,1.12.08.18.23.32.45.44s.52.18.93.18v.35h-4.58v-.35c.46,0,.79-.07,1.02-.21.16-.1.28-.27.34-.5.03-.11.05-.43.05-.95v-3.47c0-1.04-.02-1.66-.06-1.86s-.12-.34-.23-.43-.26-.14-.42-.14c-.2,0-.43.05-.68.15l-.1-.35,2.71-1.09h.41Z"/>
        <path d="M302.33,696.78v2.94h2.09v.68h-2.09v5.8c0,.58.08.97.25,1.17s.38.3.64.3c.21,0,.42-.07.62-.2s.36-.33.47-.59h.38c-.23.64-.55,1.12-.97,1.44s-.85.48-1.29.48c-.3,0-.59-.08-.88-.25s-.5-.4-.63-.71-.21-.79-.21-1.43v-6.02h-1.42v-.32c.36-.14.72-.39,1.1-.73s.71-.75,1-1.22c.15-.25.36-.7.62-1.36h.3Z"/>
        <path d="M309.66,699.45c1.35,0,2.44.51,3.26,1.54.7.88,1.04,1.89,1.04,3.03,0,.8-.19,1.61-.58,2.43s-.91,1.44-1.59,1.86-1.42.62-2.25.62c-1.35,0-2.42-.54-3.21-1.61-.67-.9-1.01-1.92-1.01-3.05,0-.82.2-1.64.61-2.45s.94-1.41,1.61-1.8,1.37-.58,2.11-.58ZM309.36,700.09c-.34,0-.69.1-1.04.31s-.63.56-.84,1.08-.32,1.18-.32,1.98c0,1.3.26,2.43.78,3.37s1.2,1.42,2.05,1.42c.63,0,1.15-.26,1.56-.78s.62-1.42.62-2.69c0-1.59-.34-2.84-1.03-3.75-.46-.62-1.05-.94-1.77-.94Z"/>
        <path d="M327.71,704.23h-5.13l-.9,2.09c-.22.51-.33.9-.33,1.15,0,.2.1.38.29.53s.61.25,1.25.3v.36h-4.17v-.36c.55-.1.91-.22,1.07-.38.33-.31.7-.95,1.1-1.9l4.66-10.9h.34l4.61,11.02c.37.89.71,1.46,1.01,1.72s.72.41,1.26.44v.36h-5.22v-.36c.53-.03.88-.11,1.07-.26s.28-.33.28-.55c0-.29-.13-.74-.39-1.36l-.8-1.9ZM327.44,703.5l-2.25-5.35-2.3,5.35h4.55Z"/>
        <path d="M335.5,706.77c.31,0,.56.11.77.32s.31.47.31.77-.11.56-.32.77-.47.32-.77.32-.55-.11-.77-.32-.32-.47-.32-.77.11-.56.32-.77.47-.31.77-.31Z"/>
        <path d="M276.85,729.4h.43c.07.89.35,1.58.84,2.05s1.22.76,2.19.85v-5.7c-1.46-.91-2.44-1.71-2.93-2.4-.34-.5-.52-1.1-.52-1.81,0-.8.3-1.5.89-2.1s1.45-.96,2.55-1.08v-.9h.62v.9c.53.03.98.09,1.35.19.19.05.81.27,1.88.67v2.92h-.38c-.08-1.04-.35-1.79-.81-2.27s-1.13-.76-2.04-.85v4.96c1.64,1.15,2.69,1.99,3.16,2.53s.7,1.22.7,2.03c0,.9-.34,1.69-1.02,2.37s-1.63,1.08-2.84,1.18v1.25h-.62v-1.25c-.61-.03-1.18-.1-1.71-.21s-1.11-.3-1.75-.56v-2.76ZM280.31,724.41v-4.54c-.65.08-1.13.29-1.45.62s-.47.76-.47,1.26c0,.48.14.92.43,1.33s.78.85,1.49,1.32ZM280.93,732.3c.49-.08.86-.21,1.12-.36.36-.23.65-.53.86-.89s.32-.76.32-1.18-.13-.84-.39-1.22-.9-.93-1.92-1.63v5.28Z"/>
      </g>
    </g>
  </g>
  <g id="Tabla">
    <polygon class="st19" points="316.23 279.06 245.36 279.06 209.93 340.43 245.36 401.8 316.23 401.8 351.66 340.43 316.23 279.06"/>
    <polygon class="st19" points="423.19 217.69 352.33 217.69 316.9 279.06 352.33 340.43 423.19 340.43 458.63 279.06 423.19 217.69"/>
    <polygon class="st19" points="423.19 340.43 352.33 340.43 316.9 401.8 352.33 463.17 423.19 463.17 458.63 401.8 423.19 340.43"/>
    <polygon class="st17" points="423.19 463.17 352.33 463.17 316.9 524.55 352.33 585.92 423.19 585.92 458.63 524.55 423.19 463.17"/>
    <polygon class="st25" points="530.16 401.8 459.3 401.8 423.86 463.17 459.3 524.55 530.16 524.55 565.59 463.17 530.16 401.8"/>
    <polygon class="st17" points="530.16 524.55 459.3 524.55 423.86 585.92 459.3 647.29 530.16 647.29 565.59 585.92 530.16 524.55"/>
    <polygon class="st25" points="637.13 463.17 566.26 463.17 530.83 524.55 566.26 585.92 637.13 585.92 672.56 524.55 637.13 463.17"/>
    <polygon class="st27" points="209.26 463.17 138.4 463.17 102.96 524.55 138.4 585.92 209.26 585.92 244.69 524.55 209.26 463.17"/>
    <polygon class="st17" points="316.23 401.8 245.36 401.8 209.93 463.17 245.36 524.55 316.23 524.55 351.66 463.17 316.23 401.8"/>
    <polygon class="st27" points="209.26 585.92 138.4 585.92 102.96 647.29 138.4 708.66 209.26 708.66 244.69 647.29 209.26 585.92"/>
    <polygon class="st27" points="316.23 524.55 245.36 524.55 209.93 585.92 245.36 647.29 316.23 647.29 351.66 585.92 316.23 524.55"/>
    <polygon class="st0" points="423.19 585.92 352.33 585.92 316.9 647.29 352.33 708.66 423.19 708.66 458.63 647.29 423.19 585.92"/>
    <polygon class="st0" points="530.16 647.29 459.3 647.29 423.86 708.66 459.3 770.03 530.16 770.03 565.59 708.66 530.16 647.29"/>
    <polygon class="st11" points="637.13 831.41 566.26 831.41 530.83 892.78 566.26 954.15 637.13 954.15 672.56 892.78 637.13 831.41"/>
    <polygon class="st18" points="851.06 831.41 780.2 831.41 744.76 892.78 780.2 954.15 851.06 954.15 886.49 892.78 851.06 831.41"/>
    <polygon class="st2" points="316.23 770.03 245.36 770.03 209.93 831.41 245.36 892.78 316.23 892.78 351.66 831.41 316.23 770.03"/>
    <polygon class="st0" points="423.19 708.66 352.33 708.66 316.9 770.03 352.33 831.41 423.19 831.41 458.63 770.03 423.19 708.66"/>
    <polygon class="st8" points="423.19 831.41 352.33 831.41 316.9 892.78 352.33 954.15 423.19 954.15 458.63 892.78 423.19 831.41"/>
    <polygon class="st8" points="530.16 770.03 459.3 770.03 423.86 831.41 459.3 892.78 530.16 892.78 565.59 831.41 530.16 770.03"/>
    <polygon class="st6" points="423.19 954.15 352.33 954.15 316.9 1015.52 352.33 1076.89 423.19 1076.89 458.63 1015.52 423.19 954.15"/>
    <polygon class="st11" points="530.16 892.78 459.3 892.78 423.86 954.15 459.3 1015.52 530.16 1015.52 565.59 954.15 530.16 892.78"/>
    <polygon class="st11" points="637.13 954.15 566.26 954.15 530.83 1015.52 566.26 1076.89 637.13 1076.89 672.56 1015.52 637.13 954.15"/>
    <polygon class="st24" points="851.06 94.94 780.2 94.94 744.76 156.31 780.2 217.69 851.06 217.69 886.49 156.31 851.06 94.94"/>
    <polygon class="st24" points="851.06 217.69 780.2 217.69 744.76 279.06 780.2 340.43 851.06 340.43 886.49 279.06 851.06 217.69"/>
    <polygon class="st24" points="958.03 156.31 887.16 156.31 851.73 217.69 887.16 279.06 958.03 279.06 993.46 217.69 958.03 156.31"/>
    <polygon class="st10" points="1064.99 217.69 994.13 217.69 958.7 279.06 994.13 340.43 1064.99 340.43 1100.43 279.06 1064.99 217.69"/>
    <polygon class="st14" points="530.16 156.31 459.3 156.31 423.86 217.69 459.3 279.06 530.16 279.06 565.59 217.69 530.16 156.31"/>
    <polygon class="st14" points="637.13 94.94 566.26 94.94 530.83 156.31 566.26 217.69 637.13 217.69 672.56 156.31 637.13 94.94"/>
    <polygon class="st14" points="637.13 217.69 566.26 217.69 530.83 279.06 566.26 340.43 637.13 340.43 672.56 279.06 637.13 217.69"/>
    <polygon class="st23" points="744.09 156.31 673.23 156.31 637.8 217.69 673.23 279.06 744.09 279.06 779.53 217.69 744.09 156.31"/>
    <polygon class="st25" points="637.13 340.43 566.26 340.43 530.83 401.8 566.26 463.17 637.13 463.17 672.56 401.8 637.13 340.43"/>
    <polygon class="st23" points="744.09 279.06 673.23 279.06 637.8 340.43 673.23 401.8 744.09 401.8 779.53 340.43 744.09 279.06"/>
    <polygon class="st23" points="744.09 401.8 673.23 401.8 637.8 463.17 673.23 524.55 744.09 524.55 779.53 463.17 744.09 401.8"/>
    <polygon class="st1" points="851.06 340.43 780.2 340.43 744.76 401.8 780.2 463.17 851.06 463.17 886.49 401.8 851.06 340.43"/>
    <polygon class="st1" points="958.03 401.8 887.16 401.8 851.73 463.17 887.16 524.55 958.03 524.55 993.46 463.17 958.03 401.8"/>
    <polygon class="st10" points="1064.99 340.43 994.13 340.43 958.7 401.8 994.13 463.17 1064.99 463.17 1100.43 401.8 1064.99 340.43"/>
    <polygon class="st20" points="1064.99 463.17 994.13 463.17 958.7 524.55 994.13 585.92 1064.99 585.92 1100.43 524.55 1064.99 463.17"/>
    <polygon class="st20" points="1171.96 401.8 1101.1 401.8 1065.66 463.17 1101.1 524.55 1171.96 524.55 1207.39 463.17 1171.96 401.8"/>
    <polygon class="st21" points="1064.99 585.92 994.13 585.92 958.7 647.29 994.13 708.66 1064.99 708.66 1100.43 647.29 1064.99 585.92"/>
    <polygon class="st3" points="1171.96 524.55 1101.1 524.55 1065.66 585.92 1101.1 647.29 1171.96 647.29 1207.39 585.92 1171.96 524.55"/>
    <polygon class="st3" points="1278.93 585.92 1208.06 585.92 1172.63 647.29 1208.06 708.66 1278.93 708.66 1314.36 647.29 1278.93 585.92"/>
    <polygon class="st1" points="851.06 463.17 780.2 463.17 744.76 524.55 780.2 585.92 851.06 585.92 886.49 524.55 851.06 463.17"/>
    <polygon class="st20" points="958.03 524.55 887.16 524.55 851.73 585.92 887.16 647.29 958.03 647.29 993.46 585.92 958.03 524.55"/>
    <polygon class="st21" points="958.03 647.29 887.16 647.29 851.73 708.66 887.16 770.03 958.03 770.03 993.46 708.66 958.03 647.29"/>
    <polygon class="st12" points="958.03 770.03 887.16 770.03 851.73 831.41 887.16 892.78 958.03 892.78 993.46 831.41 958.03 770.03"/>
    <polygon class="st21" points="1064.99 708.66 994.13 708.66 958.7 770.03 994.13 831.41 1064.99 831.41 1100.43 770.03 1064.99 708.66"/>
    <polygon class="st18" points="851.06 954.15 780.2 954.15 744.76 1015.52 780.2 1076.89 851.06 1076.89 886.49 1015.52 851.06 954.15"/>
    <polygon class="st18" points="958.03 892.78 887.16 892.78 851.73 954.15 887.16 1015.52 958.03 1015.52 993.46 954.15 958.03 892.78"/>
    <polygon class="st16" points="1064.99 954.15 994.13 954.15 958.7 1015.52 994.13 1076.89 1064.99 1076.89 1100.43 1015.52 1064.99 954.15"/>
    <polygon class="st4" points="958.03 1138.26 887.16 1138.26 851.73 1199.64 887.16 1261.01 958.03 1261.01 993.46 1199.64 958.03 1138.26"/>
    <polygon class="st16" points="1064.99 1076.89 994.13 1076.89 958.7 1138.26 994.13 1199.64 1064.99 1199.64 1100.43 1138.26 1064.99 1076.89"/>
    <polygon class="st4" points="851.06 1076.89 780.2 1076.89 744.76 1138.26 780.2 1199.64 851.06 1199.64 886.49 1138.26 851.06 1076.89"/>
    <polygon class="st4" points="851.06 1199.64 780.2 1199.64 744.76 1261.01 780.2 1322.38 851.06 1322.38 886.49 1261.01 851.06 1199.64"/>
    <polygon class="st10" points="1171.96 279.06 1101.1 279.06 1065.66 340.43 1101.1 401.8 1171.96 401.8 1207.39 340.43 1171.96 279.06"/>
    <polygon class="st9" points="1278.93 708.66 1208.06 708.66 1172.63 770.03 1208.06 831.41 1278.93 831.41 1314.36 770.03 1278.93 708.66"/>
    <polygon class="st2" points="209.26 708.66 138.4 708.66 102.96 770.03 138.4 831.41 209.26 831.41 244.69 770.03 209.26 708.66"/>
    <polygon class="st2" points="209.26 831.41 138.4 831.41 102.96 892.78 138.4 954.15 209.26 954.15 244.69 892.78 209.26 831.41"/>
    <polygon class="st8" points="316.23 892.78 245.36 892.78 209.93 954.15 245.36 1015.52 316.23 1015.52 351.66 954.15 316.23 892.78"/>
    <polygon class="st12" points="1064.99 831.41 994.13 831.41 958.7 892.78 994.13 954.15 1064.99 954.15 1100.43 892.78 1064.99 831.41"/>
    <polygon class="st9" points="1171.96 770.03 1101.1 770.03 1065.66 831.41 1101.1 892.78 1171.96 892.78 1207.39 831.41 1171.96 770.03"/>
    <polygon class="st12" points="1171.96 892.78 1101.1 892.78 1065.66 954.15 1101.1 1015.52 1171.96 1015.52 1207.39 954.15 1171.96 892.78"/>
    <polygon class="st9" points="1278.93 831.41 1208.06 831.41 1172.63 892.78 1208.06 954.15 1278.93 954.15 1314.36 892.78 1278.93 831.41"/>
    <polygon class="st16" points="1171.96 1015.52 1101.1 1015.52 1065.66 1076.89 1101.1 1138.26 1171.96 1138.26 1207.39 1076.89 1171.96 1015.52"/>
    <polygon class="st6" points="316.23 1015.52 245.36 1015.52 209.93 1076.89 245.36 1138.26 316.23 1138.26 351.66 1076.89 316.23 1015.52"/>
    <polygon class="st3" points="1278.93 463.17 1208.06 463.17 1172.63 524.55 1208.06 585.92 1278.93 585.92 1314.36 524.55 1278.93 463.17"/>
    <polygon class="st6" points="423.19 1076.89 352.33 1076.89 316.9 1138.26 352.33 1199.64 423.19 1199.64 458.63 1138.26 423.19 1076.89"/>
    <polygon class="st26" points="637.13 1076.89 566.26 1076.89 530.83 1138.26 566.26 1199.64 637.13 1199.64 672.56 1138.26 637.13 1076.89"/>
    <polygon class="st26" points="530.16 1138.26 459.3 1138.26 423.86 1199.64 459.3 1261.01 530.16 1261.01 565.59 1199.64 530.16 1138.26"/>
    <polygon class="st26" points="637.13 1199.64 566.26 1199.64 530.83 1261.01 566.26 1322.38 637.13 1322.38 672.56 1261.01 637.13 1199.64"/>
    <polygon id="_x33_A" class="st22" points="744.09 892.78 673.23 892.78 637.8 954.15 673.23 1015.52 744.09 1015.52 779.53 954.15 744.09 892.78"/>
    <polygon id="_x32_A" class="st22" points="744.09 1015.52 673.23 1015.52 637.8 1076.89 673.23 1138.26 744.09 1138.26 779.53 1076.89 744.09 1015.52"/>
    <polygon id="_x31_A" class="st22" points="744.09 1138.26 673.23 1138.26 637.8 1199.64 673.23 1261.01 744.09 1261.01 779.53 1199.64 744.09 1138.26"/>
    <polygon id="C6" class="st15" points="530.16 279.06 459.3 279.06 423.86 340.43 459.3 401.8 530.16 401.8 565.59 340.43 530.16 279.06"/>
    <polygon id="C5" class="st15" points="316.23 647.29 245.36 647.29 209.93 708.66 245.36 770.03 316.23 770.03 351.66 708.66 316.23 647.29"/>
    <polygon id="C4" class="st15" points="530.16 1015.52 459.3 1015.52 423.86 1076.89 459.3 1138.26 530.16 1138.26 565.59 1076.89 530.16 1015.52"/>
    <polygon id="C3" class="st15" points="958.03 279.06 887.16 279.06 851.73 340.43 887.16 401.8 958.03 401.8 993.46 340.43 958.03 279.06"/>
    <polygon id="C2" class="st15" points="1171.96 647.29 1101.1 647.29 1065.66 708.66 1101.1 770.03 1171.96 770.03 1207.39 708.66 1171.96 647.29"/>
    <polygon id="C1" class="st15" points="958.03 1015.52 887.16 1015.52 851.73 1076.89 887.16 1138.26 958.03 1138.26 993.46 1076.89 958.03 1015.52"/>
    <polygon id="B6" class="st13" points="1278.93 954.15 1208.06 954.15 1172.63 1015.52 1208.06 1076.89 1278.93 1076.89 1314.36 1015.52 1278.93 954.15"/>
    <polygon id="B5" class="st13" points="1278.93 340.43 1208.06 340.43 1172.63 401.8 1208.06 463.17 1278.93 463.17 1314.36 401.8 1278.93 340.43"/>
    <polygon id="B4" class="st13" points="744.09 33.57 673.23 33.57 637.8 94.94 673.23 156.31 744.09 156.31 779.53 94.94 744.09 33.57"/>
    <polygon id="B3" class="st13" points="209.26 340.43 138.4 340.43 102.96 401.8 138.4 463.17 209.26 463.17 244.69 401.8 209.26 340.43"/>
    <polygon id="B2" class="st13" points="209.26 954.15 138.4 954.15 102.96 1015.52 138.4 1076.89 209.26 1076.89 244.69 1015.52 209.26 954.15"/>
    <polygon id="B1" class="st13" points="744.09 1261.01 673.23 1261.01 637.8 1322.38 673.23 1383.75 744.09 1383.75 779.53 1322.38 744.09 1261.01"/>
    <polygon id="A6" class="st13" points="851.06 708.66 780.2 708.66 744.76 770.03 780.2 831.41 851.06 831.41 886.49 770.03 851.06 708.66"/>
    <polygon id="A5" class="st13" points="851.06 585.92 780.2 585.92 744.76 647.29 780.2 708.66 851.06 708.66 886.49 647.29 851.06 585.92"/>
    <polygon id="A4" class="st13" points="744.09 524.55 673.23 524.55 637.8 585.92 673.23 647.29 744.09 647.29 779.53 585.92 744.09 524.55"/>
    <polygon id="3" class="st13" points="637.13 585.92 566.26 585.92 530.83 647.29 566.26 708.66 637.13 708.66 672.56 647.29 637.13 585.92"/>
    <polygon id="2" class="st13" points="637.13 708.66 566.26 708.66 530.83 770.03 566.26 831.41 637.13 831.41 672.56 770.03 637.13 708.66"/>
    <polygon id="1" class="st13" points="744.09 770.03 673.23 770.03 637.8 831.41 673.23 892.78 744.09 892.78 779.53 831.41 744.09 770.03"/>
    <polygon id="_x31_" class="st5" points="744.09 647.29 673.23 647.29 637.8 708.66 673.23 770.03 744.09 770.03 779.53 708.66 744.09 647.29"/>
  </g>
</svg>